<svg width="24" height="24" viewBox="0 0 24 24" fill="none" xmlns="http://www.w3.org/2000/svg">
<path d="M12.003 20.02C11.8423 20.02 11.6823 19.988 11.523 19.924C11.3637 19.86 11.2267 19.7646 11.112 19.638L5.38198 13.885H6.78498L11.817 18.925C11.851 18.9583 11.881 18.9793 11.907 18.988C11.933 18.9966 11.963 19.0006 11.997 19C12.031 18.9993 12.0606 18.9953 12.086 18.988C12.1113 18.9806 12.141 18.9596 12.175 18.925L18.465 12.629C18.9636 12.1303 19.3483 11.5703 19.619 10.949C19.8896 10.3276 20.0187 9.69731 20.006 9.05797C19.9853 7.90797 19.621 6.93331 18.913 6.13397C18.2056 5.33397 17.3403 4.93397 16.317 4.93397C15.775 4.93397 15.2477 5.04397 14.735 5.26397C14.2223 5.48397 13.7773 5.80431 13.4 6.22497L12.494 7.19997C12.4233 7.28664 12.347 7.34664 12.265 7.37997C12.183 7.41331 12.0956 7.42964 12.003 7.42897C11.9103 7.42831 11.8176 7.40764 11.725 7.36697C11.6323 7.32631 11.551 7.27064 11.481 7.19997L10.575 6.22497C10.1996 5.80297 9.75632 5.48064 9.24498 5.25797C8.73298 5.03464 8.20398 4.92297 7.65798 4.92297C6.78332 4.92297 6.01998 5.22631 5.36798 5.83297C4.71598 6.44031 4.29265 7.20097 4.09798 8.11497H3.08698C3.29365 6.91631 3.81832 5.91797 4.66098 5.11997C5.50365 4.32197 6.50265 3.92297 7.65798 3.92297C8.34265 3.92297 9.00065 4.06197 9.63198 4.33997C10.2633 4.61797 10.8283 5.02131 11.327 5.54997L12 6.26197L12.635 5.58797C13.1423 5.04731 13.715 4.63464 14.353 4.34997C14.991 4.06531 15.6456 3.92297 16.317 3.92297C17.625 3.92297 18.7323 4.42431 19.639 5.42697C20.5456 6.42964 20.9993 7.63964 21 9.05697C21 9.83564 20.8457 10.5903 20.537 11.321C20.2277 12.0516 19.7833 12.7086 19.204 13.292L12.864 19.638C12.7373 19.7646 12.6023 19.86 12.459 19.924C12.3156 19.988 12.1636 20.0196 12.003 20.019M11.894 11.5H3.05798V10.5H15.875C16.2863 10.5 16.6393 10.353 16.934 10.059C17.2286 9.76497 17.3756 9.41197 17.375 8.99997C17.3743 8.58797 17.2273 8.23497 16.934 7.94097C16.6406 7.64697 16.2876 7.49997 15.875 7.49997C15.6283 7.49997 15.3977 7.55597 15.183 7.66797C14.9683 7.77997 14.7906 7.93997 14.65 8.14797L13.648 7.87297C13.87 7.45364 14.177 7.12031 14.569 6.87297C14.9616 6.62431 15.397 6.49997 15.875 6.49997C16.5696 6.49997 17.1596 6.74297 17.645 7.22897C18.1316 7.71431 18.375 8.30397 18.375 8.99797C18.375 9.69197 18.1316 10.2823 17.645 10.769C17.1583 11.2556 16.5683 11.4993 15.875 11.5H13.815C13.9937 11.7053 14.1316 11.932 14.229 12.18C14.3263 12.428 14.375 12.7013 14.375 13C14.375 13.6946 14.1316 14.2846 13.645 14.77C13.1596 15.2566 12.5696 15.5 11.875 15.5C11.397 15.5 10.9617 15.376 10.569 15.128C10.177 14.88 9.87032 14.5463 9.64898 14.127L10.65 13.852C10.79 14.0593 10.9677 14.2193 11.183 14.332C11.3983 14.4446 11.629 14.5006 11.875 14.5C12.2863 14.5 12.6393 14.353 12.934 14.059C13.2286 13.765 13.3756 13.412 13.375 13C13.3743 12.588 13.2303 12.235 12.943 11.941C12.6557 11.647 12.306 11.5 11.894 11.5Z" fill="black"/>
</svg>
