<svg width="78" height="77" viewBox="0 0 78 77" fill="none" xmlns="http://www.w3.org/2000/svg">
<path d="M5.21777 66.8563H73.1479V71.5824H5.21777V66.8563ZM59.8045 26.6849H19.7742C18.4877 26.6861 17.2543 27.1845 16.3447 28.0705C15.435 28.9565 14.9234 30.1579 14.9221 31.4109V50.3151C14.9259 53.4475 16.2052 56.4506 18.4792 58.6655C20.7533 60.8805 23.8365 62.1265 27.0525 62.1303H46.4611C49.677 62.1265 52.7602 60.8805 55.0343 58.6655C57.3083 56.4506 58.5876 53.4475 58.5914 50.3151V47.9521H59.8045C62.6999 47.9521 65.4768 46.8318 67.5242 44.8376C69.5716 42.8434 70.7218 40.1387 70.7218 37.3185C70.7218 34.4983 69.5716 31.7936 67.5242 29.7994C65.4768 27.8052 62.6999 26.6849 59.8045 26.6849ZM53.7393 50.3151C53.7374 52.1947 52.9699 53.9967 51.6054 55.3258C50.2409 56.6548 48.3908 57.4023 46.4611 57.4042H27.0525C25.1227 57.4023 23.2726 56.6548 21.9081 55.3258C20.5436 53.9967 19.7762 52.1947 19.7742 50.3151V31.4109H53.7393V50.3151ZM59.8045 43.2261H58.5914V31.4109H59.8045C61.4131 31.4109 62.9558 32.0333 64.0932 33.1412C65.2306 34.2491 65.8697 35.7517 65.8697 37.3185C65.8697 38.8853 65.2306 40.3879 64.0932 41.4958C62.9558 42.6037 61.4131 43.2261 59.8045 43.2261ZM46.4611 21.9588H41.6089V21.6138C41.6125 20.7355 41.3632 19.8739 40.8893 19.1266C40.4154 18.3794 39.736 17.7765 38.9281 17.3864L32.4141 14.2176C30.7988 13.4367 29.4404 12.2308 28.4928 10.7364C27.5451 9.24207 27.0462 7.51906 27.0525 5.76265V3.05463H31.9046V5.76265C31.9016 6.64083 32.1511 7.50227 32.6249 8.24942C33.0987 8.99657 33.7779 9.59956 34.5854 9.99011L41.097 13.1589C42.7125 13.9397 44.0713 15.1455 45.0194 16.6398C45.9674 18.1342 46.4668 19.8572 46.4611 21.6138V21.9588Z" fill="black"/>
</svg>
