<svg width="512" height="512" viewBox="0 0 512 512" fill="none" xmlns="http://www.w3.org/2000/svg">
<path d="M110.763 110.763L88.063 88.063C87.968 88.163 87.87 88.249 87.775 88.344C43.1692 132.947 18.0516 193.406 17.9204 256.486C17.7892 319.566 42.6551 380.129 87.075 424.917L109.775 402.217C71.2675 363.43 49.7398 310.937 49.9251 256.281C50.1104 201.626 71.9934 149.281 110.763 110.755V110.763ZM425.069 88.348C424.669 87.948 424.252 87.555 423.846 87.154L401.146 109.854C420.578 128.92 436.041 151.645 446.642 176.719C457.244 201.793 462.774 228.719 462.913 255.941C463.053 283.164 457.799 310.145 447.455 335.326C437.111 360.507 421.881 383.39 402.646 402.654L425.346 425.354C469.949 380.602 494.972 319.98 494.919 256.796C494.866 193.612 469.743 133.031 425.065 88.354L425.069 88.348Z" fill="black"/>
<path d="M153.523 153.522C126.111 180.716 110.611 217.677 110.426 256.289C110.24 294.902 125.385 332.01 152.534 359.466L175.151 336.849C154.009 315.386 142.241 286.416 142.427 256.29C142.612 226.163 154.736 197.34 176.14 176.139L153.523 153.522ZM335.773 175.227C346.606 185.714 355.248 198.25 361.195 212.106C367.142 225.961 370.277 240.861 370.416 255.938C370.556 271.016 367.698 285.971 362.008 299.934C356.318 313.897 347.91 326.591 337.273 337.277L359.9 359.9C373.512 346.246 384.28 330.028 391.58 312.183C398.88 294.339 402.567 275.224 402.427 255.944C402.288 236.665 398.325 217.605 390.767 199.868C383.21 182.131 372.208 166.07 358.4 152.615L335.773 175.227ZM294.766 216.234C285.387 207.435 273.261 202.138 260.433 201.236C247.604 200.334 234.857 203.881 224.338 211.281C213.82 218.68 206.174 229.479 202.689 241.858C199.203 254.237 200.091 267.439 205.204 279.239C210.316 291.04 219.34 300.717 230.755 306.641C242.169 312.565 255.277 314.373 267.869 311.76C280.461 309.147 291.768 302.274 299.884 292.298C307.999 282.322 312.428 269.853 312.424 256.993C312.429 249.352 310.864 241.791 307.827 234.78C304.789 227.769 300.344 221.456 294.766 216.234ZM256.424 280.993C251.677 280.993 247.037 279.585 243.09 276.948C239.143 274.311 236.067 270.563 234.251 266.177C232.434 261.792 231.959 256.966 232.885 252.311C233.811 247.655 236.097 243.379 239.453 240.022C242.81 236.666 247.086 234.38 251.742 233.454C256.397 232.528 261.223 233.003 265.608 234.82C269.994 236.636 273.742 239.713 276.379 243.659C279.016 247.606 280.424 252.246 280.424 256.993C280.424 263.358 277.895 269.463 273.394 273.964C268.893 278.464 262.789 280.993 256.424 280.993Z" fill="black"/>
</svg>
