<svg width="78" height="87" viewBox="0 0 78 87" fill="none" xmlns="http://www.w3.org/2000/svg">
<path d="M24.1604 16.2515C26.8077 14.2987 30.0394 13.2455 33.3601 13.2533C34.5069 13.2282 35.6417 13.4853 36.6595 14.0008C37.6773 14.5163 38.5451 15.2735 39.1827 16.2023C39.8203 15.2735 40.6881 14.5163 41.7058 14.0008C42.7236 13.4853 43.8584 13.2282 45.0052 13.2533C48.326 13.2455 51.5577 14.2987 54.2049 16.2515C56.2428 17.794 57.8149 19.9302 58.37 22.5125C59.6432 22.6071 60.8077 23.1213 61.7859 23.8963C63.2687 25.0684 64.3479 26.8265 65.0272 28.6866C66.0908 31.579 66.378 35.2653 65.2756 38.4034C65.5551 38.532 65.8307 38.6832 66.0985 38.8571C67.166 39.549 67.9773 40.5396 68.5751 41.7079C69.7512 43.9953 70.2364 47.1863 70.2364 51.0617C70.2364 55.3756 68.5479 58.2717 66.4052 60.0601C65.2203 61.0496 63.822 61.7668 62.3138 62.1584C61.9257 64.2681 60.8388 66.7106 59.1347 68.7825C56.9221 71.4858 53.4907 73.7467 48.887 73.7467C45.2382 73.7467 42.3346 71.7807 40.4481 69.8524C39.9971 69.3921 39.5745 68.906 39.1827 68.3968C38.7909 68.906 38.3683 69.3921 37.9172 69.8524C36.0307 71.7807 33.1311 73.7467 29.4784 73.7467C24.8746 73.7467 21.4471 71.4858 19.2306 68.7825C17.6382 66.8564 16.5475 64.5838 16.0515 62.1584C14.5434 61.7668 13.1451 61.0496 11.9602 60.0601C9.81745 58.2717 8.12891 55.3718 8.12891 51.0617C8.12891 47.1863 8.618 43.9915 9.79028 41.7079C10.3459 40.5621 11.1997 39.578 12.2668 38.8533C12.529 38.6843 12.8041 38.5351 13.0897 38.4072C11.9873 35.2615 12.2746 31.579 13.3382 28.6866C14.0175 26.8265 15.0966 25.0684 16.5794 23.8963C17.5576 23.1213 18.7221 22.6108 19.9953 22.5125C20.5543 19.9302 22.1225 17.794 24.1604 16.2515ZM37.2418 22.7054V22.6675L37.234 22.4785C37.1769 21.4929 36.9756 20.5202 36.6363 19.5899C36.3947 18.8877 35.9833 18.2523 35.4368 17.7373C34.8635 17.251 34.1195 16.9991 33.3601 17.0341C30.9027 17.0259 28.5097 17.7984 26.5438 19.2345C24.7427 20.5994 23.6558 22.4483 23.6558 24.5958C23.6556 24.8952 23.5823 25.1902 23.4421 25.4566C23.3019 25.7231 23.0988 25.9532 22.8494 26.1282C22.6 26.3032 22.3115 26.418 22.0076 26.4631C21.7038 26.5083 21.3932 26.4825 21.1016 26.3879C20.3719 26.1535 19.7197 26.2858 19.0249 26.8303C18.2641 27.4352 17.5227 28.5089 16.9909 29.957C15.9079 32.9136 16.0204 36.4941 17.5071 38.6718C17.7195 38.982 17.8329 39.3464 17.8332 39.7191H20.7445C23.0609 39.7191 25.2824 40.6154 26.9203 42.2108C28.5582 43.8061 29.4784 45.9699 29.4784 48.226V49.4926C30.7733 49.9386 31.8648 50.816 32.5597 51.97C33.2547 53.1239 33.5085 54.48 33.2762 55.7986C33.044 57.1171 32.3406 58.3132 31.2905 59.1755C30.2403 60.0378 28.911 60.5108 27.5375 60.5108C26.164 60.5108 24.8347 60.0378 23.7845 59.1755C22.7344 58.3132 22.031 57.1171 21.7988 55.7986C21.5665 54.48 21.8203 53.1239 22.5153 51.97C23.2103 50.816 24.3017 49.9386 25.5966 49.4926V48.226C25.5966 45.6173 23.4229 43.5 20.7445 43.5H13.9515C13.7194 43.4996 13.4894 43.4586 13.2722 43.379L13.2605 43.4017C12.492 44.8951 12.0106 47.3753 12.0106 51.0617C12.0106 54.3094 13.2334 56.1393 14.4872 57.1866C15.8341 58.3133 17.3286 58.6233 17.8332 58.6233C18.348 58.6233 18.8416 58.8225 19.2056 59.177C19.5696 59.5316 19.7741 60.0124 19.7741 60.5138C19.7741 61.9051 20.5504 64.3362 22.2584 66.4232C23.9236 68.446 26.3186 69.9659 29.4784 69.9659C31.6521 69.9659 33.6008 68.7825 35.1069 67.2437C35.8483 66.4875 36.4266 65.7049 36.8032 65.0621C36.9746 64.7771 37.1213 64.4786 37.2418 64.1698V34.0479H33.0301C32.5723 35.3092 31.6714 36.3723 30.4867 37.0492C29.302 37.7261 27.9097 37.9733 26.5559 37.747C25.2022 37.5208 23.9742 36.8357 23.0889 35.8129C22.2035 34.79 21.718 33.4953 21.718 32.1575C21.718 30.8196 22.2035 29.5249 23.0889 28.502C23.9742 27.4792 25.2022 26.7941 26.5559 26.5679C27.9097 26.3416 29.302 26.5888 30.4867 27.2657C31.6714 27.9427 32.5723 29.0057 33.0301 30.267H37.2418V22.7054ZM41.1235 60.51V64.1661C41.2441 64.4748 41.3908 64.7733 41.5622 65.0583C41.9426 65.7011 42.5171 66.4837 43.2546 67.2399C44.7646 68.7787 46.7171 69.9621 48.887 69.9621C52.0467 69.9621 54.4417 68.4422 56.107 66.4194C57.8149 64.3324 58.5913 61.9013 58.5913 60.51C58.5913 60.0086 58.7958 59.5278 59.1597 59.1733C59.5237 58.8187 60.0174 58.6196 60.5321 58.6196C61.0368 58.6196 62.5312 58.3095 63.8782 57.1828C65.132 56.1356 66.3547 54.3056 66.3547 51.0579C66.3547 47.3716 65.8695 44.8951 65.1048 43.3979C64.849 42.8404 64.4474 42.358 63.9403 41.999C63.5032 41.7269 62.9914 41.591 62.473 41.6096C62.1219 41.6094 61.7775 41.5165 61.4763 41.3407C61.1752 41.1649 60.9286 40.9129 60.7629 40.6114C60.5972 40.31 60.5186 39.9704 60.5354 39.6288C60.5521 39.2873 60.6637 38.9565 60.8582 38.6718C62.3488 36.4941 62.4575 32.9136 61.3745 29.957C60.8427 28.5089 60.1013 27.4314 59.3404 26.8303C58.6456 26.2858 57.9935 26.1497 57.2637 26.3879C56.9721 26.4825 56.6616 26.5083 56.3577 26.4631C56.0539 26.418 55.7654 26.3032 55.516 26.1282C55.2666 25.9532 55.0634 25.7231 54.9232 25.4566C54.783 25.1902 54.7098 24.8952 54.7095 24.5958C54.7095 22.4483 53.6227 20.5994 51.8177 19.2345C49.8529 17.7992 47.4613 17.0267 45.0052 17.0341C44.2458 16.9991 43.5019 17.251 42.9285 17.7373C42.3804 18.2517 41.9676 18.8872 41.7252 19.5899C41.3556 20.5775 41.1525 21.6168 41.1235 22.6675V56.7329H44.0348C46.7132 56.7329 48.887 54.6157 48.887 52.0069V45.069C47.592 44.6231 46.5006 43.7456 45.8056 42.5917C45.1106 41.4377 44.8568 40.0817 45.0891 38.7631C45.3214 37.4445 46.0247 36.2484 47.0749 35.3861C48.125 34.5238 49.4543 34.0509 50.8278 34.0509C52.2014 34.0509 53.5307 34.5238 54.5808 35.3861C55.6309 36.2484 56.3343 37.4445 56.5666 38.7631C56.7988 40.0817 56.545 41.4377 55.8501 42.5917C55.1551 43.7456 54.0637 44.6231 52.7687 45.069V52.0069C52.7687 54.263 51.8485 56.4268 50.2106 58.0222C48.5727 59.6175 46.3512 60.5138 44.0348 60.5138H41.1235V60.51ZM25.5966 32.1575C25.5966 32.6588 25.8011 33.1397 26.1651 33.4942C26.5291 33.8487 27.0228 34.0479 27.5375 34.0479C28.0523 34.0479 28.5459 33.8487 28.9099 33.4942C29.2739 33.1397 29.4784 32.6588 29.4784 32.1575C29.4784 31.6561 29.2739 31.1753 28.9099 30.8207C28.5459 30.4662 28.0523 30.267 27.5375 30.267C27.0228 30.267 26.5291 30.4662 26.1651 30.8207C25.8011 31.1753 25.5966 31.6561 25.5966 32.1575ZM50.8278 41.6096C51.3426 41.6096 51.8362 41.4104 52.2002 41.0559C52.5642 40.7013 52.7687 40.2205 52.7687 39.7191C52.7687 39.2178 52.5642 38.7369 52.2002 38.3824C51.8362 38.0279 51.3426 37.8287 50.8278 37.8287C50.3131 37.8287 49.8194 38.0279 49.4554 38.3824C49.0915 38.7369 48.887 39.2178 48.887 39.7191C48.887 40.2205 49.0915 40.7013 49.4554 41.0559C49.8194 41.4104 50.3131 41.6096 50.8278 41.6096ZM27.5375 52.9521C27.0228 52.9521 26.5291 53.1513 26.1651 53.5058C25.8011 53.8603 25.5966 54.3411 25.5966 54.8425C25.5966 55.3439 25.8011 55.8247 26.1651 56.1792C26.5291 56.5338 27.0228 56.7329 27.5375 56.7329C28.0523 56.7329 28.5459 56.5338 28.9099 56.1792C29.2739 55.8247 29.4784 55.3439 29.4784 54.8425C29.4784 54.3411 29.2739 53.8603 28.9099 53.5058C28.5459 53.1513 28.0523 52.9521 27.5375 52.9521Z" fill="black"/>
</svg>
