<svg width="62" height="61" viewBox="0 0 62 61" fill="none" xmlns="http://www.w3.org/2000/svg">
<path d="M49.2313 8.0105H13.4786C10.6695 8.0105 8.37109 10.2594 8.37109 13.0082V47.9918C8.37109 50.7405 10.6695 52.9895 13.4786 52.9895H49.2313C52.0404 52.9895 54.3388 50.7405 54.3388 47.9918V13.0082C54.3388 10.2594 52.0404 8.0105 49.2313 8.0105ZM36.4625 23.0035H28.8012V28.0012H33.9087C36.7179 28.0012 39.0163 30.2501 39.0163 32.9988V37.9965C39.0163 39.3219 38.4781 40.5931 37.5203 41.5304C36.5624 42.4676 35.2633 42.9941 33.9087 42.9941H26.2474C24.8429 42.9941 23.6937 41.8697 23.6937 40.4953C23.6937 39.121 24.8429 37.9965 26.2474 37.9965H33.9087V32.9988H26.2474C24.8429 32.9988 23.6937 31.8743 23.6937 30.5V20.5047C23.6937 19.1303 24.8429 18.0058 26.2474 18.0058H36.4625C37.8671 18.0058 39.0163 19.1303 39.0163 20.5047C39.0163 21.879 37.8671 23.0035 36.4625 23.0035Z" fill="black"/>
</svg>
