<svg width="62" height="61" viewBox="0 0 62 61" fill="none" xmlns="http://www.w3.org/2000/svg">
<path d="M38.3992 22.379C45.4513 34.3306 44.7319 47.6554 36.7925 52.1407C28.8531 56.6258 16.7001 50.573 9.64812 38.6214C2.59609 26.6696 3.31546 13.3448 11.2549 8.8597C19.1943 4.37448 31.3472 10.4273 38.3992 22.379Z" stroke="black" stroke-width="4" stroke-linecap="round" stroke-linejoin="round"/>
<path d="M24.0241 22.379C16.9721 34.3306 17.6914 47.6554 25.6308 52.1407C33.5702 56.6258 45.7232 50.573 52.7752 38.6214C59.8272 26.6696 59.1078 13.3448 51.1684 8.8597C43.229 4.37448 31.076 10.4273 24.0241 22.379Z" stroke="black" stroke-width="4" stroke-linecap="round" stroke-linejoin="round"/>
<path d="M31.04 13.4382C33.779 15.8217 36.3125 18.842 38.3995 22.3788C45.4516 34.3305 44.7322 47.6552 36.7928 52.1405C35.1351 53.0769 33.2939 53.554 31.3538 53.6139" stroke="black" stroke-width="4" stroke-linecap="round" stroke-linejoin="round"/>
</svg>
