<svg width="117" height="117" viewBox="0 0 117 117" fill="none" xmlns="http://www.w3.org/2000/svg">
<path d="M46.3125 80.4375H62.8144C65.0569 80.4375 66.9305 79.6868 68.4353 78.1853C69.9368 76.6805 70.6875 74.8069 70.6875 72.5644V63.9356C70.6875 61.6931 69.9368 59.8211 68.4353 58.3196C66.9305 56.8149 65.0569 56.0625 62.8144 56.0625H51.1875V41.4375H70.6875V36.5625H46.3125V60.9375H62.8144C63.6886 60.9375 64.4069 61.2186 64.9691 61.7809C65.5314 62.3431 65.8125 63.0614 65.8125 63.9356V72.5644C65.8125 73.4386 65.5314 74.1569 64.9691 74.7191C64.4069 75.2814 63.6886 75.5625 62.8144 75.5625H46.3125V80.4375ZM27.3731 97.5C25.1306 97.5 23.2586 96.7493 21.7571 95.2478C20.2524 93.743 19.5 91.8694 19.5 89.6269V27.3731C19.5 25.1306 20.2524 23.2586 21.7571 21.7571C23.2586 20.2524 25.1306 19.5 27.3731 19.5H89.6269C91.8694 19.5 93.7414 20.2524 95.2429 21.7571C96.7476 23.2586 97.5 25.1306 97.5 27.3731V89.6269C97.5 91.8694 96.7493 93.7414 95.2478 95.2429C93.743 96.7476 91.8694 97.5 89.6269 97.5H27.3731ZM27.3731 92.625H89.6269C90.3744 92.625 91.0618 92.313 91.689 91.689C92.313 91.0618 92.625 90.3744 92.625 89.6269V27.3731C92.625 26.6256 92.313 25.9382 91.689 25.311C91.0618 24.687 90.3744 24.375 89.6269 24.375H27.3731C26.6256 24.375 25.9382 24.687 25.311 25.311C24.687 25.9382 24.375 26.6256 24.375 27.3731V89.6269C24.375 90.3744 24.687 91.0618 25.311 91.689C25.9382 92.313 26.6256 92.625 27.3731 92.625Z" fill="black"/>
</svg>
