<svg width="62" height="61" viewBox="0 0 62 61" fill="none" xmlns="http://www.w3.org/2000/svg">
<path fill-rule="evenodd" clip-rule="evenodd" d="M31.3553 7.38582C30.7684 7.38582 30.1873 7.49893 29.6451 7.71869C29.1029 7.93845 28.6102 8.26056 28.1952 8.66663C27.7802 9.0727 27.451 9.55477 27.2264 10.0853C27.0018 10.6159 26.8862 11.1845 26.8862 11.7588C26.8862 12.333 27.0018 12.9017 27.2264 13.4322C27.451 13.9628 27.7802 14.4449 28.1952 14.8509C28.6102 15.257 29.1029 15.5791 29.6451 15.7989C30.1873 16.0186 30.7684 16.1317 31.3553 16.1317C32.5406 16.1317 33.6773 15.671 34.5155 14.8509C35.3536 14.0308 35.8244 12.9186 35.8244 11.7588C35.8244 10.599 35.3536 9.48672 34.5155 8.66663C33.6773 7.84654 32.5406 7.38582 31.3553 7.38582ZM23.0556 11.7588C23.0556 9.6049 23.93 7.53924 25.4865 6.01622C27.043 4.4932 29.1541 3.63757 31.3553 3.63757C33.5566 3.63757 35.6676 4.4932 37.2241 6.01622C38.7806 7.53924 39.6551 9.6049 39.6551 11.7588C39.6551 13.9127 38.7806 15.9783 37.2241 17.5013C35.6676 19.0244 33.5566 19.88 31.3553 19.88C29.1541 19.88 27.043 19.0244 25.4865 17.5013C23.93 15.9783 23.0556 13.9127 23.0556 11.7588ZM31.3553 24.9276C30.621 24.9185 29.887 24.9619 29.1591 25.0576L26.8811 25.4324C21.7404 26.2795 17.9481 30.6849 17.9481 35.8725C17.9495 37.2021 17.6172 38.5118 16.9805 39.6864C16.3438 40.8611 15.422 41.8648 14.2962 42.6094L14.0408 42.7818C13.3898 43.2105 12.6829 43.5518 11.9391 43.7963L8.98436 44.7708C8.5028 44.9299 7.97639 44.8953 7.52093 44.6745C7.06548 44.4538 6.71829 44.0651 6.55573 43.5939C6.39318 43.1227 6.42859 42.6076 6.65416 42.1619C6.87973 41.7163 7.277 41.3766 7.75856 41.2175L10.7184 40.243C11.1346 40.1055 11.533 39.9131 11.8982 39.6732L12.1587 39.5008C12.7636 39.0989 13.2585 38.558 13.6 37.9254C13.9415 37.2928 14.1192 36.5879 14.1174 35.8725C14.1174 28.8833 19.2326 22.8911 26.2427 21.7366L28.5155 21.3618C29.456 21.2308 30.4054 21.1707 31.3553 21.1819C32.3052 21.1705 33.2546 21.2307 34.1951 21.3618L36.468 21.7366C43.4806 22.8911 48.5932 28.8833 48.5932 35.8725C48.5932 37.3368 49.3338 38.6962 50.5545 39.5008L50.8125 39.6732C51.1802 39.9131 51.5786 40.1055 51.9948 40.243L54.9521 41.2175C55.4337 41.3766 55.8309 41.7163 56.0565 42.1619C56.2821 42.6076 56.3175 43.1227 56.1549 43.5939C55.9924 44.0651 55.6452 44.4538 55.1897 44.6745C54.7343 44.8953 54.2079 44.9299 53.7263 44.7708L50.7716 43.7963C50.0286 43.5516 49.3226 43.2104 48.6724 42.7818L48.4145 42.6094C47.2887 41.8648 46.3669 40.8611 45.7302 39.6864C45.0934 38.5118 44.7612 37.2021 44.7626 35.8725C44.7626 30.6849 40.9703 26.2795 35.8321 25.4324L33.5541 25.0576C32.8262 24.9626 32.0922 24.92 31.3579 24.9301L31.3553 24.9276ZM23.4387 39.3709C23.5896 39.174 23.7786 39.0081 23.9951 38.8827C24.2115 38.7573 24.4511 38.6749 24.7001 38.6401C24.949 38.6052 25.2026 38.6188 25.4463 38.6799C25.6899 38.7409 25.9189 38.8484 26.1201 38.996C26.3213 39.1437 26.4909 39.3287 26.619 39.5405C26.7472 39.7523 26.8314 39.9867 26.867 40.2303C26.9026 40.4739 26.8887 40.7221 26.8263 40.9605C26.7639 41.1989 26.6541 41.4229 26.5032 41.6198L24.1435 44.7009L24.0873 44.7733C23.8195 45.1398 23.5295 45.4902 23.219 45.8229C22.4994 46.5608 21.621 47.1327 20.6474 47.4971C20.2516 47.642 19.8404 47.742 19.3194 47.8719L19.2301 47.8919L14.6486 49.0139C14.0857 49.1543 13.5945 49.4907 13.2668 49.9601C12.9392 50.4295 12.7977 50.9996 12.8688 51.5637C12.9399 52.1279 13.2187 52.6473 13.653 53.0247C14.0874 53.4022 14.6474 53.6118 15.2283 53.6142H16.9751C20.9232 53.6142 24.7641 52.3623 27.9231 50.0434L32.7599 46.4925C32.9611 46.3449 33.1901 46.2374 33.4337 46.1763C33.6774 46.1153 33.931 46.1017 34.18 46.1365C34.429 46.1714 34.6685 46.2538 34.8849 46.3792C35.1014 46.5046 35.2904 46.6705 35.4414 46.8674C35.5923 47.0643 35.7021 47.2883 35.7645 47.5267C35.8269 47.7651 35.8407 48.0132 35.8052 48.2569C35.7696 48.5005 35.6853 48.7349 35.5572 48.9467C35.429 49.1585 35.2595 49.3435 35.0583 49.4911L32.7497 51.1853L34.0036 51.6476C35.3673 52.1474 35.9827 52.3723 36.6008 52.5622C38.46 53.131 40.3839 53.4726 42.3289 53.5792C42.975 53.6142 43.6313 53.6142 45.0869 53.6142H47.4849C48.0656 53.6112 48.6252 53.4012 49.0591 53.0235C49.493 52.6459 49.7713 52.1265 49.8421 51.5625C49.9128 50.9985 49.7711 50.4287 49.4435 49.9596C49.1159 49.4905 48.6247 49.1542 48.062 49.0139L44.3004 48.0918C44.2306 48.0751 44.1608 48.0584 44.0909 48.0418C42.8754 47.7445 41.9177 47.5121 41.0622 47.0273C40.8051 46.8829 40.5578 46.7227 40.3216 46.5475C39.535 45.9628 38.9426 45.1906 38.1943 44.2086L38.0641 44.0412L36.2075 41.6198C36.0566 41.4229 35.9468 41.1989 35.8843 40.9605C35.8219 40.7221 35.8081 40.4739 35.8437 40.2303C35.8792 39.9867 35.9635 39.7523 36.0917 39.5405C36.2198 39.3287 36.3893 39.1437 36.5905 38.996C36.7918 38.8484 37.0207 38.7409 37.2644 38.6799C37.508 38.6188 37.7616 38.6052 38.0106 38.6401C38.2596 38.6749 38.4992 38.7573 38.7156 38.8827C38.932 39.0081 39.1211 39.174 39.272 39.3709L41.1286 41.7922C42.0684 43.0192 42.3314 43.3365 42.6379 43.5639C42.7451 43.6414 42.8575 43.7138 42.975 43.7813C43.3069 43.9687 43.7079 44.0837 45.2299 44.456L48.9916 45.3756C50.4631 45.7363 51.7491 46.6109 52.6075 47.8348C53.4659 49.0586 53.8375 50.5473 53.6523 52.0206C53.4671 53.4938 52.738 54.85 51.6021 55.8339C50.4662 56.8177 49.0019 57.3614 47.4849 57.3625H45.0256C43.6491 57.3625 42.8805 57.3625 42.1143 57.32C39.8538 57.1961 37.6176 56.7991 35.4567 56.138C34.7263 55.9131 34.0087 55.6508 32.719 55.1785L29.0621 53.8366C25.4692 56.137 21.2688 57.3623 16.9751 57.3625H15.2283C13.7113 57.3614 12.2471 56.8177 11.1112 55.8339C9.97526 54.85 9.24608 53.4938 9.0609 52.0206C8.87571 50.5473 9.24729 49.0586 10.1057 47.8348C10.9641 46.6109 12.2501 45.7363 13.7216 45.3756L18.3005 44.2561C18.9517 44.0962 19.1279 44.0512 19.2811 43.9937C19.7229 43.8288 20.1239 43.5689 20.4508 43.2341C20.5631 43.1166 20.6755 42.9792 21.079 42.4519L23.4387 39.3709Z" fill="black"/>
</svg>
