<svg width="36" height="36" viewBox="0 0 36 36" fill="none" xmlns="http://www.w3.org/2000/svg">
<path d="M20 14H16C15.7348 14 15.4804 14.1054 15.2929 14.2929C15.1054 14.4804 15 14.7348 15 15V21C15 21.2652 15.1054 21.5196 15.2929 21.7071C15.4804 21.8946 15.7348 22 16 22H20C20.2652 22 20.5196 21.8946 20.7071 21.7071C20.8946 21.5196 21 21.2652 21 21V15C21 14.7348 20.8946 14.4804 20.7071 14.2929C20.5196 14.1054 20.2652 14 20 14ZM19.6 20.6H16.4V15.4H19.6V20.6Z" fill="black"/>
<path d="M33.71 12.38L29.62 8.29C29.4338 8.10526 29.1824 8.0011 28.92 8H23.92V6.05C23.9336 5.52455 23.7397 5.01489 23.3804 4.63125C23.0211 4.24762 22.5252 4.02085 22 4H13.84C13.5834 4.0101 13.3313 4.07159 13.0989 4.18084C12.8664 4.29009 12.6582 4.44488 12.4867 4.63603C12.3151 4.82718 12.1836 5.05082 12.1 5.29369C12.0164 5.53657 11.9824 5.79375 12 6.05V8H7.08002C6.94841 7.99924 6.81795 8.02446 6.69611 8.07423C6.57427 8.12399 6.46346 8.19732 6.37002 8.29L2.29002 12.38C2.19734 12.4734 2.12401 12.5843 2.07425 12.7061C2.02448 12.8279 1.99926 12.9584 2.00002 13.09V28C2.00002 28.5304 2.21073 29.0391 2.5858 29.4142C2.96088 29.7893 3.46958 30 4.00002 30H32C32.5305 30 33.0392 29.7893 33.4142 29.4142C33.7893 29.0391 34 28.5304 34 28V13.08C33.9989 12.8177 33.8948 12.5663 33.71 12.38ZM14 6H22V8H14V6ZM32 17H22V18.93H32V28H4.00002V18.93H14V17H4.00002V13.5L7.50002 10H28.5L32 13.5V17Z" fill="black"/>
</svg>
